PathFileType	4	(X/Y/Z)	/Users/niels/Desktop/University/Third Semester/Perception and Action/Exam/Gymnastics Motion Tracking/Code for Gym Tracking/Analyzed Data/Webcam_Backflip/id10_1_baseline_Sports2D/id10_1_baseline_Sports2D_px_person00.trc
DataRate	CameraRate	NumFrames	NumMarkers	Units	OrigDataRate	OrigDataStartFrame	OrigNumFrames
29.705882352941178	29.705882352941178	10	22	m	29.705882352941178	25	102
Frame#	Time	Hip			RHip			RKnee			RAnkle			RBigToe			RSmallToe			RHeel			LHip			LKnee			LAnkle			LBigToe			LSmallToe			LHeel			Neck			Head			Nose			RShoulder			RElbow			RWrist			LShoulder			LElbow			LWrist		
		X1	Y1	Z1	X2	Y2	Z2	X3	Y3	Z3	X4	Y4	Z4	X5	Y5	Z5	X6	Y6	Z6	X7	Y7	Z7	X8	Y8	Z8	X9	Y9	Z9	X10	Y10	Z10	X11	Y11	Z11	X12	Y12	Z12	X13	Y13	Z13	X14	Y14	Z14	X15	Y15	Z15	X16	Y16	Z16	X17	Y17	Z17	X18	Y18	Z18	X19	Y19	Z19	X20	Y20	Z20	X21	Y21	Z21	X22	Y22	Z22
25	0.8415841584158417	0.8948758329968819	-0.5588794207549622	0.0	0.8941275134144211	-0.5690067869375413	0.0	0.8930288350678157	-0.8122983258774504	0.0	0.8667486105999253	-1.0349364346023104	0.0	0.9707834000572368	-1.056552249516495	0.0	0.9486987266729253	-1.069452237750368	0.0	0.8452693972895053	-1.0611740968523709	0.0	0.8934717400306676	-0.5659603369605071	0.0	0.8932810628092152	-0.7989477764779823	0.0	0.8670084026245042	-1.0084028655719601	0.0	0.9677877527058347	-1.023301961184207	0.0	0.952609402240415	-1.0224215142727493	0.0	0.8370354041526917	-1.0281229896491395	0.0	0.89666541856058	-0.24169408426275268	0.0	0.9243943673838292	-0.10257310751496608	0.0	0.9498119220608332	-0.1805488090748071	0.0	0.8869159317578736	-0.27296307154158056	0.0	1.0493246281432969	-0.2358797176273252	0.0	1.1235950221552669	-0.1205320103018131	0.0	0.8756373644815042	-0.27073503407442406	0.0	1.0181324728484005	-0.27021056707961605	0.0	1.1174671592941592	-0.42706366926881884	0.0
26	0.8752475247524754	0.8967532418110848	-0.5591116639778716	0.0	0.8950502007989843	-0.5691418050794451	0.0	0.8948881291464217	-0.8116814741142073	0.0	0.8668536144418597	-1.0338359650994258	0.0	0.9708169051898033	-1.0562393447236686	0.0	0.9481605092603708	-1.0692561107416771	0.0	0.845247754634523	-1.0597706653857597	0.0	0.8970139812667044	-0.5662779163857581	0.0	0.8952487690276647	-0.7990034185721011	0.0	0.8676916826632187	-1.0102397521164916	0.0	0.9697210689733304	-1.0266654432909998	0.0	0.9543708717564106	-1.0258040419076275	0.0	0.8377302489965616	-1.0300956519574977	0.0	0.8971628929945132	-0.24145879754605287	0.0	0.9240029740781898	-0.10181013398304575	0.0	0.9505786683553553	-0.1794032000976371	0.0	0.8865845572838392	-0.2724635115341265	0.0	1.0483462923745068	-0.23147944059030529	0.0	1.1178607023266267	-0.11501007840270663	0.0	0.8797322657928329	-0.26982979468926155	0.0	1.0203659215825696	-0.24667308678799488	0.0	1.117547927690766	-0.4269890215599933	0.0
27	0.9089108910891089	0.8982671447462394	-0.5593270625751134	0.0	0.8960087765217029	-0.5691930829584163	0.0	0.8966381565332278	-0.8104353296579927	0.0	0.8666842019964529	-1.032007281303705	0.0	0.9698957492448645	-1.0552162383613197	0.0	0.9472221413300476	-1.068270615887278	0.0	0.8450045780295901	-1.0581390861443916	0.0	0.8992908494120074	-0.5666023355864844	0.0	0.8968297603304884	-0.7986743770217781	0.0	0.8682208307957021	-1.0111490635022584	0.0	0.9705115475475103	-1.029045570432323	0.0	0.9548892848381959	-1.0282919832060946	0.0	0.8382544327241674	-1.0314092450595422	0.0	0.8975300165338337	-0.241259084152127	0.0	0.9234931628163091	-0.10122757992508812	0.0	0.9512041161212871	-0.17863905421584456	0.0	0.8865296142492084	-0.272202570835519	0.0	1.0478130421492833	-0.22812969427544816	0.0	1.11393531561662	-0.11103609897773217	0.0	0.8828175951906507	-0.2692575574767244	0.0	1.021784709916323	-0.23158202939727027	0.0	1.117612468699132	-0.42690240707943883	0.0
28	0.9425742574257426	0.8994582090003865	-0.559495551192082	0.0	0.8970560607654503	-0.5691153440740244	0.0	0.8981508826268909	-0.8090308186113064	0.0	0.8664177452124482	-1.0300660949445026	0.0	0.9683122204217243	-1.0537906080230934	0.0	0.9461037061180019	-1.0668452484192763	0.0	0.8446411715469037	-1.0567116490764408	0.0	0.9004462980835247	-0.5667972918396216	0.0	0.8979895572659179	-0.7982498033003261	0.0	0.8685350523450132	-1.0111772884927093	0.0	0.9702887699098142	-1.0302307545352156	0.0	0.9543927983855616	-1.0296572456881992	0.0	0.8385812429038475	-1.0320555022824205	0.0	0.8978142421160886	-0.24103078145258516	0.0	0.9228829556267523	-0.10073218837885152	0.0	0.9515486413372913	-0.17815843340021703	0.0	0.8868627068814348	-0.2720402399691026	0.0	1.0477294658801557	-0.22555260091423515	0.0	1.1114967330356547	-0.10816471135857718	0.0	0.8846482154702765	-0.2689824069642194	0.0	1.0224402870385367	-0.22382312137310384	0.0	1.1176532984147438	-0.4268121565611929	0.0
29	0.9762376237623763	0.9003731670107584	-0.5595853858713522	0.0	0.8982134073672529	-0.568926632234659	0.0	0.8992700696083389	-0.8079212311417243	0.0	0.8661657247927665	-1.0285388714550878	0.0	0.9664886762431762	-1.052365226698274	0.0	0.9449739880953623	-1.0654085294900202	0.0	0.8443087064874409	-1.0557892825237367	0.0	0.9007770928645858	-0.5667901647856077	0.0	0.8987335093502663	-0.7979581840773581	0.0	0.8686467257095589	-1.0106324992751827	0.0	0.9694063592342046	-1.0304242588906884	0.0	0.9533492697643534	-1.0300419984763076	0.0	0.8387898962320232	-1.0322342534057	0.0	0.8980635864188246	-0.24078389967425162	0.0	0.9222078939727362	-0.10024984851357376	0.0	0.9516128962590868	-0.17782464081825622	0.0	0.8875399099752136	-0.27192125089340013	0.0	1.0480886213574374	-0.22362031967073395	0.0	1.1101582360083393	-0.10606175203221693	0.0	0.885423359760108	-0.26892734639482374	0.0	1.0225044410970936	-0.2211592194749576	0.0	1.1176724093032164	-0.4267110929868949	0.0
30	1.00990099009901	0.9010309447908381	-0.5596277565738892	0.0	0.8994927619532264	-0.5687276554333712	0.0	0.8999099450716559	-0.8073920339899964	0.0	0.8659298918886286	-1.0276613900770046	0.0	0.9648107377394691	-1.0512740336136457	0.0	0.9439492161495111	-1.0643036232556742	0.0	0.8440890352571354	-1.055501673309469	0.0	0.9005689351429164	-0.5666936468718979	0.0	0.8990820094432173	-0.7979195165422557	0.0	0.8685611817159113	-1.0099516395077028	0.0	0.9682411245101333	-1.0301190120131614	0.0	0.9521871112919744	-1.02986415524037	0.0	0.8389441806596836	-1.0322385239450143	0.0	0.8982525935564325	-0.24057349292120658	0.0	0.9215238578826044	-0.09984484116259681	0.0	0.9515506397543603	-0.17753862670594378	0.0	0.8884571339431413	-0.2718445408406507	0.0	1.0487752742140475	-0.22237903415702828	0.0	1.1096015482473192	-0.10458169512810152	0.0	0.8853101675349208	-0.2690222434232949	0.0	1.0223077559309655	-0.22146873546987525	0.0	1.117673893600361	-0.42659308143078706	0.0
31	1.0435643564356436	0.9014390422546027	-0.5597431939649548	0.0	0.9008703501977948	-0.5686874429846933	0.0	0.9001303112012826	-0.8075410074626903	0.0	0.8657047520492658	-1.0274249183789737	0.0	0.9635649005712406	-1.0506923292910026	0.0	0.9431561760750828	-1.063702357431509	0.0	0.8439569923290263	-1.0558187054440853	0.0	0.900049569684943	-0.5667292391559152	0.0	0.8990880108960012	-0.7981653160386473	0.0	0.8683152572293346	-1.009523307000198	0.0	0.9671374435682266	-1.0297893748238762	0.0	0.9512031745692697	-1.0295675885505675	0.0	0.8390454212092946	-1.0323097247666808	0.0	0.8983053784762324	-0.24046154620103116	0.0	0.9208908124486063	-0.09963650361100848	0.0	0.9515193791045798	-0.17730268489592002	0.0	0.8895166138797902	-0.271813866769807	0.0	1.0496366294127286	-0.22190552613963624	0.0	1.1096633547535852	-0.10373303973742337	0.0	0.8843832814990011	-0.2692342942643474	0.0	1.0221889153021944	-0.22320836624477663	0.0	1.1176602119736803	-0.4264713940467814	0.0
32	1.0772277227722773	0.901654524100123	-0.5600381340683133	0.0	0.9022404610653018	-0.5689227721428715	0.0	0.9001386516513405	-0.8081819207817952	0.0	0.8655189136850073	-1.027650239814702	0.0	0.9628556984758967	-1.0505939327066027	0.0	0.9426873096115276	-1.063567589306643	0.0	0.8438165903077427	-1.0564990681428283	0.0	0.8994399433748426	-0.5670264584243717	0.0	0.898862342099605	-0.7986028748427265	0.0	0.8679889019931353	-1.0094884796214423	0.0	0.9663151755332727	-1.0296506007996784	0.0	0.9505285267282635	-1.0293903296381028	0.0	0.839027914534916	-1.0325063677646233	0.0	0.8982176279122951	-0.2404881088219166	0.0	0.9203840150062428	-0.09965840514013267	0.0	0.951607736363381	-0.17719815194221725	0.0	0.8906490970284787	-0.2717964559810251	0.0	1.0506093439695023	-0.22214100517928922	0.0	1.1102940259976208	-0.10353780594050126	0.0	0.8828986250953966	-0.26952765666981987	0.0	1.0223286675007828	-0.22537408266371778	0.0	1.1176317147586632	-0.42639835271574017	0.0
33	1.110891089108911	0.9017810954517304	-0.5605327862305458	0.0	0.9034276215690238	-0.5693962172680226	0.0	0.9001925196500171	-0.808931930275705	0.0	0.865371069443529	-1.0280788343841811	0.0	0.9625819648390139	-1.0507776898038454	0.0	0.9425533941814481	-1.0636854504826918	0.0	0.8435725109067003	-1.057178115739372	0.0	0.8989285322319016	-0.567563465836019	0.0	0.8985508980657743	-0.7990763430288392	0.0	0.8676405622174701	-1.009778362771147	0.0	0.9657823472627766	-1.0296747456390989	0.0	0.9501120590287232	-1.0293726370188863	0.0	0.8387860786715235	-1.03277780698941	0.0	0.898092828687555	-0.24064119149280153	0.0	0.9201035827736381	-0.09986027002969407	0.0	0.9518839242471864	-0.17728130975942122	0.0	0.8918205292462841	-0.2717168186533097	0.0	1.0517196620930822	-0.22284587716495266	0.0	1.111417597815376	-0.10391891510533445	0.0	0.8813061026265072	-0.2698144612300675	0.0	1.0227555221074196	-0.22734961669556658	0.0	1.1175890240146087	-0.4264821764902755	0.0
34	1.1445544554455447	0.9019139466041415	-0.561164250955897	0.0	0.9042672218912579	-0.5699348166767815	0.0	0.9004813986955508	-0.8094996558926144	0.0	0.8652268560600802	-1.028518799434893	0.0	0.9625616600373031	-1.0510077502605588	0.0	0.9426991643158386	-1.0638129265467708	0.0	0.8432135794584396	-1.0576142498854897	0.0	0.8986112706876617	-0.5682307490952311	0.0	0.8982964958559659	-0.7994991103108081	0.0	0.8672949862714108	-1.0102900352222022	0.0	0.9654418186029485	-1.0297234898661223	0.0	0.9498352095528847	-1.0294620716596583	0.0	0.8382372514439891	-1.0331256399383957	0.0	0.898054676855426	-0.24085849578230292	0.0	0.9201321952794242	-0.10017378776416659	0.0	0.952365224780959	-0.17751755436998465	0.0	0.8929703433133088	-0.27152873351678203	0.0	1.0529844171701193	-0.2237283264343909	0.0	1.1128438738652828	-0.10472073983947915	0.0	0.8800348797859819	-0.2700016465469376	0.0	1.0233943885624899	-0.22884222728174924	0.0	1.1175380045586596	-0.42689032048734626	0.0
